# xmcd
#
# Track frame offsets: 
#        150
#        11782
#        22793
#
# Disc length: 498 seconds
#
# Revision: 0
# Processed by: cddbd v1.5.1PL2 Copyright (c) Steve Scherf et al.
# Submitted via: ExactAudioCopy v0.95a5
#
DISCID=1501f003
DTITLE=Fin-Ray - Black Law
DYEAR=2006
DGENRE=Blues
TTITLE0=Black Law
TTITLE1=God Given Rocks
TTITLE2=Perfect Moment
EXTD=
EXTT0=
EXTT1=
EXTT2=
PLAYORDER=
